<?xml version="1.0" encoding="utf-8"?>
<!-- Generator: Adobe Illustrator 23.1.0, SVG Export Plug-In . SVG Version: 6.00 Build 0)  -->
<svg version="1.1" id="Layer_1" xmlns="http://www.w3.org/2000/svg" xmlns:xlink="http://www.w3.org/1999/xlink" x="0px" y="0px"
	 viewBox="0 0 183.56 49.45" style="enable-background:new 0 0 183.56 49.45;" xml:space="preserve">
<style type="text/css">
	.st0{fill:#0056FF;}
</style>
<path class="st0" d="M46.29,47.09c-17.96,0-32.15-21.24-32.75-22.14l-0.37-0.56l0.38-0.55c0.6-0.88,14.79-21.47,32.74-21.47
	c17.95,0,32.14,20.6,32.74,21.47l0.38,0.55l-0.37,0.56C78.44,25.85,64.24,47.09,46.29,47.09z M15.59,24.41
	c2.38,3.36,15.37,20.68,30.69,20.68c15.32,0,28.31-17.32,30.69-20.68c-2.4-3.29-15.39-20.04-30.69-20.04
	C30.97,4.36,17.99,21.12,15.59,24.41z"/>
<path class="st0" d="M137.27,47.09c-17.96,0-32.15-21.24-32.75-22.14l-0.37-0.56l0.38-0.55c0.6-0.88,14.79-21.47,32.74-21.47
	c17.95,0,32.14,20.6,32.74,21.47l0.38,0.55l-0.37,0.56C169.43,25.85,155.23,47.09,137.27,47.09z M106.58,24.41
	c2.38,3.36,15.38,20.68,30.69,20.68c15.33,0,28.32-17.32,30.69-20.68c-2.4-3.28-15.38-20.04-30.69-20.04
	C121.97,4.36,108.98,21.12,106.58,24.41z"/>
</svg>
