<?xml version="1.0" encoding="utf-8"?>
<!-- Generator: Adobe Illustrator 25.0.0, SVG Export Plug-In . SVG Version: 6.00 Build 0)  -->
<svg version="1.1" id="Layer_1" xmlns="http://www.w3.org/2000/svg" xmlns:xlink="http://www.w3.org/1999/xlink" x="0px" y="0px"
	 viewBox="0 0 485.06 101.89" style="enable-background:new 0 0 485.06 101.89;" xml:space="preserve">
<style type="text/css">
	.st0{fill:#FFFFFF;}
	.st1{fill:#325AA6;}
	.st2{fill:#FFFFFF;stroke:#202020;stroke-linecap:round;stroke-linejoin:round;stroke-miterlimit:10;}
</style>
<g>
	<g>
		<g>
			<path class="st0" d="M191.42,9.58c-0.07-0.25-0.15-0.48-0.24-0.67c-2.5-5.35-8.98-7.48-14.42-8.23
				c-2.96-0.41-5.97-0.47-8.94-0.19c-3.7,0.35-7.36,1.26-10.77,2.76c-4.06,1.78-7.71,4.39-10.76,7.59c-3.91,4.1-6.8,9.08-8.9,14.31
				c-2.05,5.11-3.4,10.48-4.29,15.91c-7.02,42.63,10.52,60.34,36.09,60.55c27.85,0.23,44.62-15.48,39.3-53.4
				c0,0-2.73-26.64-19.44-34.52C191.62,14.63,191.94,11.49,191.42,9.58z"/>
			<path class="st1" d="M169.8,101.9c-0.2,0-0.4,0-0.61,0c-12.2-0.1-22.07-4.23-28.56-11.94c-8.81-10.47-11.44-26.95-7.82-48.96
				c0.99-6,2.4-11.22,4.31-15.97c2.31-5.74,5.33-10.59,8.96-14.41c3.15-3.3,6.8-5.88,10.86-7.66c3.37-1.48,7.02-2.41,10.86-2.78
				c3.01-0.29,6.04-0.22,9.01,0.19c5.23,0.73,12.02,2.78,14.65,8.4c0.1,0.21,0.19,0.45,0.26,0.72c0.39,1.45,0.3,3.37-0.62,4.21
				c-0.15,0.14-0.36,0.28-0.62,0.36c15.53,8.59,18.29,33.84,18.32,34.1c2.65,18.84-0.05,33.01-8.01,42.09
				C194.01,97.99,183.59,101.9,169.8,101.9z M171.5,0.61c-1.21,0-2.43,0.06-3.64,0.17c-3.77,0.36-7.37,1.28-10.68,2.73
				c-3.98,1.75-7.57,4.28-10.66,7.52c-3.59,3.76-6.56,8.55-8.84,14.22c-1.89,4.71-3.29,9.89-4.27,15.84
				c-3.6,21.84-1.01,38.15,7.69,48.48c6.37,7.57,16.09,11.62,28.11,11.72c13.92,0.09,24.39-3.73,31.13-11.43
				c7.84-8.95,10.49-22.95,7.86-41.63c-0.03-0.28-2.9-26.58-19.27-34.29c-0.14-0.07-0.21-0.24-0.15-0.39
				c0.06-0.15,0.23-0.22,0.38-0.17c0.66,0.24,1.17,0.2,1.53-0.13c0.71-0.65,0.78-2.35,0.44-3.62c0,0,0,0,0,0
				c-0.06-0.23-0.14-0.44-0.22-0.62c-2.52-5.38-9.1-7.36-14.19-8.06C175,0.73,173.26,0.61,171.5,0.61z"/>
		</g>
		<g>
			<path class="st0" d="M169.68,30.82c2.9,6.67,4.6,14.04,5.45,21.23c0.52,4.38,0.78,8.81,0.47,13.21c-0.1,1.45-0.73,11.46-3.95,8.7
				"/>
			<path class="st1" d="M172.7,74.74c-0.4,0-0.82-0.18-1.24-0.55c-0.13-0.11-0.14-0.3-0.03-0.42c0.11-0.12,0.3-0.14,0.42-0.03
				c0.44,0.37,0.8,0.49,1.13,0.35c0.53-0.22,1.82-1.52,2.32-8.75l0.01-0.09c0.28-3.92,0.13-8.1-0.47-13.16
				c-0.93-7.9-2.76-15.02-5.43-21.15c-0.07-0.15,0-0.33,0.15-0.39c0.15-0.07,0.33,0,0.39,0.15c2.69,6.18,4.53,13.36,5.47,21.32
				c0.6,5.09,0.75,9.31,0.47,13.27l-0.01,0.09c-0.39,5.56-1.29,8.67-2.69,9.26C173.04,74.7,172.87,74.74,172.7,74.74z"/>
		</g>
		<g>
			<line class="st0" x1="189.06" y1="13.68" x2="186.01" y2="12.53"/>
			<path class="st1" d="M189.06,13.98c-0.04,0-0.07-0.01-0.11-0.02l-3.04-1.15c-0.15-0.06-0.23-0.23-0.17-0.39
				c0.06-0.15,0.23-0.23,0.39-0.17l3.04,1.15c0.15,0.06,0.23,0.23,0.17,0.39C189.29,13.91,189.18,13.98,189.06,13.98z"/>
		</g>
	</g>
	<g>
		<g>
			<path class="st0" d="M122.27,51.62c21.74-8.71,33.02-46.34,14.39-49.67c-15.8-2.82-26.86,28.07-26.86,28.07
				c-0.14-8.67-3.17-17.15-9.82-22.93c-6.2-5.39-15.34-9.26-23.08-4.9C70.14,6,64.76,14.29,68.3,22.02c5.03,10.97,15.5,5.7,15.5,5.7
				s2.6,17.17,18.31,22.87c0,0-8.29,23.82-5.01,38.5c1.16,5.17,3.57,10.92,9.35,11.98c17.7,3.25,21.09-16.72,18.96-29.76
				C122.66,54.39,122.27,51.62,122.27,51.62z"/>
			<path class="st1" d="M110.16,101.72c-1.19,0-2.44-0.12-3.75-0.36c-4.75-0.87-7.98-4.98-9.59-12.21
				c-3.07-13.73,4.01-35.66,4.92-38.38c-14.15-5.3-17.65-20.04-18.16-22.62c-1.18,0.51-5.06,1.93-8.99,0.56
				c-2.81-0.98-5.02-3.19-6.56-6.56c-3.62-7.9,1.79-16.31,8.71-20.21c7.93-4.47,17.3-0.38,23.42,4.93c5.93,5.15,9.4,12.8,9.88,21.68
				c1.02-2.56,3.48-8.3,7.01-13.78c6.27-9.75,13.07-14.28,19.66-13.11c5.5,0.98,8.88,5.04,9.54,11.43
				c1.32,12.93-8.71,32.59-23.65,38.73c0.14,0.94,0.79,5.17,3.12,19.45c1.47,9,0.26,20.72-5.75,26.61
				C117.36,100.43,114.07,101.72,110.16,101.72z M83.8,27.42c0.05,0,0.09,0.01,0.14,0.03c0.09,0.04,0.14,0.13,0.16,0.22
				c0.03,0.17,2.76,17.07,18.12,22.63c0.15,0.06,0.23,0.22,0.18,0.38c-0.08,0.24-8.22,23.91-5,38.34
				c1.58,7.07,4.56,10.91,9.12,11.75c5.38,0.99,9.77-0.13,13.04-3.33c5.86-5.74,7.02-17.24,5.57-26.09
				c-2.73-16.73-3.15-19.66-3.16-19.69c-0.02-0.14,0.06-0.27,0.19-0.32c14.83-5.94,24.81-25.41,23.5-38.2
				c-0.8-7.82-5.36-10.25-9.05-10.9c-15.37-2.75-26.42,27.57-26.53,27.88c-0.05,0.14-0.18,0.22-0.33,0.19
				c-0.14-0.02-0.25-0.15-0.25-0.29c-0.15-9.33-3.6-17.39-9.72-22.71C93.81,2.14,84.7-1.86,77.04,2.45
				c-6.7,3.77-11.94,11.87-8.46,19.44c1.47,3.21,3.56,5.31,6.21,6.24c4.37,1.53,8.84-0.67,8.88-0.69
				C83.71,27.43,83.76,27.42,83.8,27.42z"/>
		</g>
		<path class="st1" d="M83.8,28.02c-0.13,0-0.25-0.09-0.29-0.22c-0.02-0.07-0.46-1.76-0.54-4.61c0-0.17,0.12-0.3,0.29-0.31
			c0.18-0.01,0.3,0.12,0.31,0.29c0.08,2.78,0.52,4.46,0.52,4.48c0.04,0.16-0.05,0.32-0.21,0.37C83.86,28.01,83.83,28.02,83.8,28.02z
			"/>
		<path class="st2" d="M109.79,30.02"/>
		<g>
			<path class="st0" d="M109.79,30.02c0,0-0.8,1.79-1.15,4.29"/>
			<path class="st1" d="M108.65,34.61c-0.01,0-0.03,0-0.04,0c-0.16-0.02-0.28-0.17-0.26-0.34c0.35-2.52,1.13-4.3,1.17-4.37
				c0.07-0.15,0.24-0.22,0.39-0.15c0.15,0.07,0.22,0.24,0.15,0.39c-0.01,0.02-0.79,1.78-1.12,4.21
				C108.92,34.5,108.8,34.61,108.65,34.61z"/>
		</g>
		<g>
			<line class="st0" x1="102.12" y1="50.59" x2="103.73" y2="51.14"/>
			<path class="st1" d="M103.73,51.44c-0.03,0-0.06-0.01-0.1-0.02l-1.61-0.55c-0.16-0.05-0.24-0.22-0.19-0.38
				c0.05-0.16,0.22-0.24,0.38-0.19l1.61,0.55c0.16,0.05,0.24,0.22,0.19,0.38C103.97,51.36,103.85,51.44,103.73,51.44z"/>
		</g>
		<g>
			<path class="st0" d="M122.27,51.62c0,0-0.63,0.39-2.4,0.5"/>
			<path class="st1" d="M119.87,52.42c-0.16,0-0.29-0.12-0.3-0.28c-0.01-0.16,0.11-0.31,0.28-0.32c1.64-0.11,2.26-0.45,2.26-0.46
				c0.14-0.08,0.32-0.04,0.41,0.1c0.08,0.14,0.04,0.32-0.1,0.41c-0.07,0.04-0.75,0.43-2.53,0.54
				C119.88,52.42,119.88,52.42,119.87,52.42z"/>
		</g>
	</g>
	<g>
		<g>
			<path class="st0" d="M16.56,27.27c0,0-9.43,4.09-14.09-3.18S1.8,6.94,9.52,2.39S33.6-1.7,38.04,29.54
				c0,0,19.99-34.99,35.33-26.36c16.04,9.03-2.39,30.79-17.61,45.44c5.32,2.2,10.5,4.84,15.47,7.73
				c7.11,4.14,16.66,9.09,17.97,18.16c1.05,7.25-2.24,14.3-8.59,18.19c-7.87,4.82-16.07-1.56-21.46-6.42
				c-5.31-4.79-10.46-9.79-15.44-14.94c0,0,4.09,19.88-9.88,27.72c-4.14,2.32-9.4,3.72-13.37,0.32c-4.12-3.52-5.39-9.78-6.09-14.87
				c-1.21-8.75-0.87-17.85-0.62-26.65c0.23-8.08,0.74-16.17,1.81-24.19C15.85,31.54,16.17,29.4,16.56,27.27z"/>
			<path class="st1" d="M26.07,101.71c-1.98,0-4.01-0.56-5.8-2.09c-4.11-3.52-5.44-9.58-6.19-15.06c-1.16-8.37-0.9-17.07-0.66-25.48
				l0.04-1.22c0.26-9.11,0.85-17.03,1.81-24.22c0.28-2.11,0.58-4.04,0.91-5.9c-0.86,0.31-2.71,0.88-4.9,0.96
				c-3.97,0.14-7.09-1.39-9.05-4.45c-1.97-3.08-2.53-6.72-1.62-10.53C1.72,9.03,5,4.7,9.37,2.13c1.66-0.97,7.58-3.9,14.37-0.63
				c5.12,2.47,11.75,9.19,14.47,27.16c1.36-2.27,5.81-9.41,11.52-15.74c9.15-10.15,17.38-13.61,23.78-10
				c3.69,2.08,5.79,4.96,6.25,8.56c1.08,8.48-6.81,20.95-23.47,37.05c4.89,2.04,9.97,4.59,15.08,7.58c0.45,0.26,0.92,0.53,1.39,0.8
				c6.9,3.98,15.48,8.94,16.73,17.57c1.08,7.45-2.27,14.53-8.73,18.49C73.02,97.7,65.04,92,58.95,86.51
				c-4.94-4.46-9.91-9.25-14.79-14.27c0.59,4.09,2.05,20.22-10.19,27.09C32.06,100.4,29.11,101.71,26.07,101.71z M16.96,26.77
				l-0.1,0.55c-0.37,2-0.7,4.09-1,6.39c-0.95,7.17-1.54,15.07-1.81,24.16l-0.04,1.22c-0.24,8.39-0.5,17.06,0.65,25.38
				c0.74,5.36,2.03,11.3,5.99,14.68c2.24,1.92,6.32,3.41,13.03-0.35c13.62-7.64,9.78-27.2,9.74-27.4l-0.21-1.01l0.71,0.74
				c5.08,5.25,10.27,10.27,15.42,14.92c5.94,5.36,13.7,10.93,21.1,6.39c6.25-3.83,9.49-10.69,8.45-17.89
				c-1.2-8.35-9.65-13.22-16.44-17.14c-0.47-0.27-0.94-0.54-1.39-0.81c-5.24-3.05-10.43-5.65-15.43-7.71l-0.42-0.17l0.33-0.32
				C72.29,32.3,80.23,19.9,79.17,11.56c-0.43-3.4-2.44-6.13-5.95-8.11c-14.9-8.39-34.73,25.9-34.92,26.24l-0.43,0.76l-0.12-0.86
				c-2.6-18.33-9.19-25.09-14.26-27.54c-6.52-3.14-12.21-0.33-13.8,0.6c-4.23,2.49-7.4,6.68-8.49,11.21
				c-0.87,3.65-0.34,7.13,1.54,10.07c1.87,2.91,4.73,4.32,8.51,4.18c2.85-0.11,5.18-1.1,5.21-1.11L16.96,26.77z"/>
		</g>
		<path class="st1" d="M37.25,31.13c-0.05,0-0.1-0.01-0.15-0.04c-0.14-0.08-0.2-0.26-0.12-0.41c0.43-0.77,0.78-1.29,0.8-1.31
			c0.09-0.14,0.28-0.17,0.41-0.08c0.14,0.09,0.17,0.28,0.08,0.41c0,0.01-0.35,0.52-0.77,1.26C37.46,31.07,37.36,31.13,37.25,31.13z"
			/>
		<path class="st1" d="M43.71,71.65c-0.14,0-0.26-0.1-0.29-0.24c-0.02-0.11-2.21-10.79-2.99-13.53c-0.05-0.16,0.05-0.32,0.2-0.37
			c0.16-0.05,0.32,0.05,0.37,0.2c0.79,2.76,2.98,13.47,3,13.57c0.03,0.16-0.07,0.32-0.23,0.35C43.75,71.65,43.73,71.65,43.71,71.65z
			"/>
		<path class="st1" d="M16.56,27.57c-0.01,0-0.03,0-0.04,0c-0.16-0.02-0.28-0.17-0.25-0.34c0.01-0.09,0.32-2.2,0.53-3.18
			c0.04-0.16,0.19-0.26,0.36-0.23c0.16,0.04,0.26,0.19,0.23,0.36c-0.21,0.96-0.52,3.11-0.52,3.14
			C16.84,27.46,16.71,27.57,16.56,27.57z"/>
		<path class="st1" d="M55.76,48.93c-0.04,0-0.09-0.01-0.13-0.03l-2.46-1.21c-0.15-0.07-0.21-0.25-0.14-0.4
			c0.07-0.15,0.25-0.21,0.4-0.14l2.46,1.21c0.15,0.07,0.21,0.25,0.14,0.4C55.97,48.87,55.87,48.93,55.76,48.93z"/>
	</g>
</g>
<g>
	<g>
		<g>
			<path class="st0" d="M445.63,6.62c-0.01,0.01-0.01,0.01-0.02,0.02c-0.65-3.84-4.66-6.79-8.52-6.27
				c-2.28,0.31-4.29,1.62-6.09,3.04c-7.68,6.04-14.66,16.13-16.34,25.92c-0.52,3.06-0.16,6.4,1.65,8.91
				c2.75,3.81,8.77,4.68,12.49,1.82c-5.21,10.69-10.43,21.38-15.64,32.07c-1.97,4.03-3.94,8.07-5.45,12.3
				c-1.11,3.12-1.95,6.64-0.59,9.66c1,2.19,3.04,3.76,5.25,4.72c6.49,2.83,14.33,0.8,19.95-3.51c5.62-4.31,9.4-10.57,12.6-16.88
				c-2.42,4.58-3.93,9.64-4.4,14.79c-0.14,1.53-0.17,3.16,0.58,4.5c1.1,1.96,3.52,2.72,5.73,3.13c3.74,0.7,7.58,0.93,11.38,0.66
				c3.79-0.26,7.72-1.1,10.63-3.54c3.2-2.69,4.66-6.87,5.87-10.86c3.51-11.61,6.09-23.49,8.03-35.46c1.6-9.87,2.77-19.94,1.43-29.85
				c-0.65-4.85-1.98-9.77-5.02-13.6c-3.84-4.83-10.12-7.38-16.29-7.39C456.7,0.77,450.69,2.52,445.63,6.62z"/>
			<path class="st1" d="M455.09,101.89c-2.79,0-5.57-0.26-8.31-0.77c-2.13-0.4-4.73-1.13-5.94-3.28c-0.79-1.41-0.77-3.08-0.62-4.67
				c0.28-3.07,0.94-6.13,1.93-9.07c-2.5,4.19-5.59,8.3-9.65,11.42c-6.25,4.79-14.2,6.19-20.25,3.55c-2.56-1.12-4.48-2.85-5.4-4.87
				c-1.46-3.23-0.46-6.97,0.58-9.88c1.52-4.25,3.52-8.36,5.46-12.33l15.16-31.08c-1.7,0.97-3.8,1.34-5.9,1.03
				c-2.51-0.37-4.72-1.65-6.08-3.53c-1.7-2.36-2.31-5.61-1.7-9.14c1.58-9.25,8.04-19.49,16.45-26.1c1.72-1.35,3.8-2.77,6.24-3.1
				c3.87-0.52,7.84,2.26,8.76,6.03c4.71-3.68,10.59-5.62,17.02-5.62c0.01,0,0.02,0,0.04,0c6.62,0.01,12.8,2.81,16.52,7.5
				c2.66,3.35,4.27,7.71,5.09,13.75c1.36,10.12,0.12,20.37-1.43,29.94c-2.1,12.95-4.73,24.56-8.04,35.5
				c-1.23,4.07-2.71,8.27-5.97,11.01c-2.49,2.09-6.03,3.27-10.8,3.61C457.19,101.86,456.14,101.89,455.09,101.89z M444.71,79.46
				c-2.12,4.28-3.46,9.02-3.89,13.76c-0.14,1.5-0.17,3.06,0.54,4.32c1.08,1.93,3.52,2.61,5.53,2.99c3.72,0.7,7.52,0.92,11.3,0.65
				c4.64-0.32,8.07-1.46,10.46-3.47c3.13-2.63,4.57-6.74,5.78-10.72c3.3-10.91,5.92-22.5,8.02-35.42
				c1.54-9.52,2.79-19.72,1.43-29.76c-0.8-5.92-2.38-10.2-4.96-13.46c-3.61-4.55-9.62-7.27-16.06-7.28c-0.01,0-0.02,0-0.04,0
				c-6.46,0-12.34,2-17.01,5.77l0,0c-0.01,0.01-0.03,0.02-0.04,0.03c-0.08,0.06-0.2,0.07-0.29,0.03c-0.09-0.04-0.16-0.12-0.18-0.22
				c-0.63-3.71-4.47-6.52-8.19-6.02c-2.3,0.31-4.3,1.68-5.95,2.98c-8.3,6.53-14.67,16.63-16.23,25.73c-0.58,3.37-0.01,6.46,1.6,8.69
				c1.26,1.75,3.33,2.95,5.68,3.29c2.35,0.34,4.67-0.22,6.38-1.53c0.11-0.09,0.26-0.08,0.37,0.01c0.11,0.09,0.14,0.24,0.08,0.36
				l-15.64,32.07c-1.93,3.96-3.93,8.05-5.43,12.27c-1,2.8-1.97,6.4-0.6,9.43c0.86,1.89,2.67,3.52,5.1,4.57
				c5.86,2.55,13.57,1.19,19.65-3.47c5.48-4.2,9.17-10.29,12.04-15.85c0.15-0.31,0.31-0.62,0.48-0.93c0.08-0.15,0.26-0.2,0.4-0.13
				c0.15,0.08,0.2,0.25,0.13,0.4C445.03,78.84,444.87,79.15,444.71,79.46z"/>
		</g>
		<path class="st1" d="M444.95,78.59c-0.04,0-0.09-0.01-0.13-0.03c-0.15-0.07-0.21-0.25-0.13-0.4c0.17-0.34,17.15-34.5,12.72-42.41
			c-0.08-0.14-0.03-0.33,0.11-0.41c0.14-0.08,0.33-0.03,0.41,0.11c1.94,3.46,0.38,11.75-4.63,24.65
			c-3.71,9.56-8.03,18.23-8.08,18.32C445.17,78.53,445.06,78.59,444.95,78.59z"/>
		<path class="st1" d="M428.79,40.35c-0.05,0-0.1-0.01-0.14-0.04c-0.15-0.08-0.2-0.26-0.12-0.4l1.93-3.61
			c0.08-0.15,0.26-0.2,0.4-0.12c0.15,0.08,0.2,0.26,0.12,0.4l-1.93,3.61C429,40.29,428.9,40.35,428.79,40.35z"/>
		<path class="st1" d="M442.75,9.91c-0.06,0-0.12-0.02-0.17-0.05c-0.14-0.09-0.17-0.28-0.08-0.42c1.46-2.1,2.91-3.03,2.97-3.07
			c0.14-0.09,0.32-0.05,0.41,0.09c0.09,0.14,0.05,0.32-0.09,0.41c-0.01,0.01-1.41,0.91-2.8,2.91
			C442.94,9.86,442.84,9.91,442.75,9.91z"/>
	</g>
	<g>
		<g>
			<path class="st0" d="M383.77,95.28c0.01-0.01,0.01-0.01,0.02-0.02c0.65,3.84,4.66,6.79,8.52,6.27c2.28-0.31,4.29-1.62,6.09-3.04
				c7.68-6.04,14.66-16.13,16.34-25.92c0.52-3.06,0.16-6.4-1.65-8.91c-2.75-3.81-8.77-4.68-12.49-1.82
				c5.21-10.69,10.43-21.38,15.64-32.07c1.97-4.03,3.94-8.07,5.45-12.3c1.11-3.12,1.95-6.64,0.59-9.66c-1-2.19-3.04-3.76-5.25-4.72
				c-6.49-2.83-14.33-0.8-19.95,3.51s-9.4,10.57-12.6,16.88c2.42-4.58,3.93-9.64,4.4-14.79c0.14-1.53,0.17-3.16-0.58-4.5
				c-1.1-1.96-3.52-2.72-5.73-3.13c-3.74-0.7-7.58-0.93-11.38-0.66c-3.79,0.26-7.72,1.1-10.63,3.54c-3.2,2.69-4.66,6.87-5.87,10.86
				c-3.51,11.61-6.09,23.49-8.03,35.46c-1.6,9.87-2.77,19.94-1.43,29.85c0.65,4.85,1.98,9.77,5.02,13.6
				c3.84,4.83,10.12,7.38,16.29,7.39C372.7,101.13,378.71,99.38,383.77,95.28z"/>
			<path class="st1" d="M391.41,101.89c-3.55,0-6.97-2.63-7.81-6.09c-4.71,3.68-10.59,5.62-17.02,5.62c-0.01,0-0.03,0-0.04,0
				c-6.62-0.01-12.8-2.81-16.52-7.5c-2.66-3.35-4.27-7.71-5.09-13.75c-1.36-10.12-0.12-20.37,1.43-29.94
				c2.1-12.95,4.73-24.57,8.04-35.5c1.23-4.07,2.71-8.27,5.97-11.01c2.49-2.09,6.03-3.27,10.8-3.61c3.83-0.27,7.68-0.04,11.46,0.66
				c2.13,0.4,4.73,1.14,5.94,3.28c0.79,1.41,0.77,3.08,0.62,4.67c-0.28,3.07-0.94,6.13-1.93,9.07c2.5-4.19,5.59-8.31,9.65-11.42
				c6.25-4.79,14.2-6.19,20.25-3.55c2.56,1.12,4.48,2.85,5.4,4.87c1.46,3.23,0.46,6.98-0.58,9.88c-1.52,4.24-3.52,8.35-5.46,12.33
				l-15.16,31.08c1.7-0.97,3.8-1.34,5.9-1.03c2.51,0.37,4.72,1.65,6.08,3.53c1.7,2.36,2.31,5.6,1.7,9.14
				c-1.58,9.24-8.04,19.49-16.45,26.1c-1.71,1.35-3.8,2.77-6.24,3.1C392.04,101.87,391.72,101.89,391.41,101.89z M383.79,94.97
				c0.04,0,0.08,0.01,0.12,0.02c0.09,0.04,0.16,0.12,0.18,0.22c0.63,3.71,4.45,6.52,8.19,6.02c2.3-0.31,4.3-1.68,5.95-2.98
				c8.3-6.53,14.67-16.63,16.23-25.73c0.58-3.37,0.01-6.46-1.6-8.69c-1.26-1.75-3.33-2.95-5.68-3.29c-2.35-0.34-4.67,0.22-6.38,1.53
				c-0.11,0.08-0.26,0.08-0.37-0.01c-0.11-0.09-0.14-0.24-0.08-0.36l15.64-32.07c1.93-3.96,3.93-8.05,5.43-12.27
				c1-2.8,1.97-6.4,0.6-9.43c-0.86-1.89-2.67-3.52-5.1-4.57c-5.86-2.55-13.57-1.19-19.65,3.48c-5.48,4.2-9.17,10.29-12.04,15.86
				c-0.15,0.31-0.31,0.62-0.48,0.93c-0.08,0.15-0.26,0.2-0.4,0.13c-0.15-0.08-0.2-0.25-0.13-0.4c0.16-0.31,0.31-0.62,0.47-0.93
				c2.12-4.28,3.46-9.01,3.89-13.76c0.14-1.5,0.17-3.06-0.54-4.33c-1.08-1.93-3.52-2.61-5.53-2.99c-3.72-0.7-7.53-0.92-11.3-0.65
				c-4.64,0.32-8.07,1.46-10.46,3.47c-3.13,2.63-4.57,6.74-5.78,10.72c-3.3,10.91-5.92,22.5-8.02,35.42
				c-1.54,9.52-2.79,19.72-1.43,29.76c0.8,5.92,2.38,10.2,4.96,13.46c3.61,4.55,9.62,7.27,16.06,7.28c0.01,0,0.03,0,0.04,0
				c6.46,0,12.34-2,17-5.77c0,0,0.01,0,0.01-0.01c0.01,0,0.03-0.02,0.03-0.02C383.67,94.99,383.73,94.97,383.79,94.97z"/>
		</g>
		<path class="st1" d="M371.74,66.6c-0.1,0-0.21-0.05-0.26-0.15c-1.94-3.46-0.38-11.75,4.63-24.65c3.71-9.56,8.03-18.23,8.08-18.32
			c0.07-0.15,0.25-0.21,0.4-0.13c0.15,0.07,0.21,0.25,0.13,0.4c-0.17,0.34-17.15,34.5-12.72,42.41c0.08,0.14,0.03,0.33-0.11,0.41
			C371.83,66.58,371.78,66.6,371.74,66.6z"/>
		<path class="st1" d="M398.68,65.75c-0.05,0-0.1-0.01-0.14-0.04c-0.15-0.08-0.2-0.26-0.12-0.4l1.93-3.61
			c0.08-0.15,0.26-0.2,0.4-0.12c0.15,0.08,0.2,0.26,0.12,0.4l-1.93,3.61C398.89,65.7,398.79,65.75,398.68,65.75z"/>
		<path class="st1" d="M383.77,95.58c-0.1,0-0.2-0.05-0.25-0.14c-0.09-0.14-0.05-0.32,0.09-0.41c0.01-0.01,1.41-0.91,2.8-2.91
			c0.09-0.14,0.28-0.17,0.42-0.08c0.14,0.09,0.17,0.28,0.08,0.42c-1.46,2.1-2.91,3.03-2.97,3.07
			C383.88,95.57,383.82,95.58,383.77,95.58z"/>
	</g>
	<g>
		<g>
			<path class="st0" d="M335.38,51.62c21.74-8.71,33.02-46.34,14.39-49.67c-15.8-2.82-26.86,28.07-26.86,28.07
				c-0.14-8.67-3.17-17.15-9.82-22.93c-6.2-5.39-15.34-9.26-23.08-4.9c-6.75,3.8-12.14,12.09-8.59,19.83
				c5.03,10.97,15.5,5.7,15.5,5.7s2.6,17.17,18.31,22.87c0,0-8.29,23.82-5.01,38.5c1.16,5.17,3.57,10.92,9.35,11.98
				c17.7,3.25,21.09-16.72,18.96-29.76C335.77,54.38,335.38,51.62,335.38,51.62z"/>
			<path class="st1" d="M323.26,101.71c-1.19,0-2.44-0.12-3.75-0.36c-4.75-0.87-7.98-4.98-9.59-12.21
				c-3.07-13.73,4.01-35.67,4.92-38.38c-14.15-5.3-17.65-20.04-18.16-22.62c-1.18,0.51-5.05,1.93-8.99,0.56
				c-2.81-0.99-5.02-3.19-6.56-6.56c-3.62-7.9,1.79-16.31,8.71-20.21c7.93-4.47,17.3-0.38,23.42,4.93c5.93,5.15,9.4,12.8,9.88,21.68
				c1.02-2.56,3.48-8.3,7.01-13.78C336.43,5,343.24,0.47,349.82,1.65c5.5,0.98,8.88,5.04,9.54,11.43
				c1.32,12.93-8.71,32.59-23.65,38.72c0.14,0.94,0.79,5.17,3.12,19.45c1.47,9,0.26,20.72-5.75,26.61
				C330.47,100.42,327.17,101.71,323.26,101.71z M296.91,27.41c0.05,0,0.09,0.01,0.14,0.03c0.09,0.04,0.14,0.13,0.16,0.22
				c0.03,0.17,2.76,17.07,18.12,22.63c0.15,0.06,0.23,0.22,0.18,0.38c-0.08,0.24-8.22,23.91-5,38.34
				c1.58,7.07,4.56,10.91,9.12,11.75c5.38,0.99,9.77-0.13,13.04-3.33c5.86-5.74,7.02-17.24,5.57-26.09
				c-2.73-16.73-3.15-19.66-3.16-19.69c-0.02-0.14,0.06-0.27,0.18-0.32c14.83-5.94,24.8-25.41,23.49-38.2
				c-0.8-7.82-5.36-10.25-9.05-10.9c-15.38-2.75-26.42,27.57-26.53,27.88c-0.05,0.14-0.18,0.22-0.33,0.19
				c-0.14-0.02-0.25-0.15-0.25-0.29c-0.15-9.33-3.6-17.39-9.72-22.71c-5.97-5.18-15.07-9.18-22.73-4.86
				c-6.7,3.77-11.94,11.87-8.46,19.44c1.47,3.21,3.56,5.31,6.21,6.24c4.37,1.54,8.84-0.66,8.88-0.69
				C296.82,27.42,296.87,27.41,296.91,27.41z"/>
		</g>
		<path class="st1" d="M296.91,28.01c-0.13,0-0.25-0.09-0.29-0.22c-0.02-0.07-0.46-1.76-0.54-4.61c0-0.17,0.12-0.3,0.29-0.31
			c0,0,0.01,0,0.01,0c0.16,0,0.29,0.13,0.3,0.29c0.08,2.78,0.52,4.46,0.52,4.48c0.04,0.16-0.05,0.32-0.21,0.37
			C296.96,28.01,296.94,28.01,296.91,28.01z"/>
		<path class="st2" d="M322.9,30.01"/>
		<g>
			<path class="st0" d="M322.9,30.01c0,0-0.8,1.79-1.15,4.29"/>
			<path class="st1" d="M321.76,34.6c-0.01,0-0.03,0-0.04,0c-0.16-0.02-0.28-0.17-0.26-0.34c0.35-2.52,1.13-4.3,1.17-4.37
				c0.07-0.15,0.24-0.22,0.39-0.15c0.15,0.07,0.22,0.24,0.15,0.39c-0.01,0.02-0.79,1.78-1.12,4.21
				C322.03,34.49,321.9,34.6,321.76,34.6z"/>
		</g>
		<g>
			<line class="st0" x1="315.23" y1="50.58" x2="316.84" y2="51.14"/>
			<path class="st1" d="M316.84,51.43c-0.03,0-0.07-0.01-0.1-0.02l-1.61-0.56c-0.16-0.05-0.24-0.22-0.19-0.38
				c0.05-0.16,0.23-0.24,0.38-0.19l1.61,0.56c0.16,0.05,0.24,0.22,0.19,0.38C317.08,51.36,316.96,51.43,316.84,51.43z"/>
		</g>
		<g>
			<path class="st0" d="M335.38,51.62c0,0-0.63,0.39-2.4,0.5"/>
			<path class="st1" d="M332.98,52.41c-0.16,0-0.29-0.12-0.3-0.28c-0.01-0.16,0.11-0.31,0.28-0.32c1.64-0.11,2.26-0.45,2.26-0.46
				c0.14-0.08,0.32-0.04,0.41,0.1c0.08,0.14,0.04,0.32-0.1,0.41c-0.03,0.02-0.72,0.42-2.53,0.54
				C332.99,52.41,332.98,52.41,332.98,52.41z"/>
		</g>
	</g>
	<g>
		<g>
			<path class="st0" d="M284.4,0.31c-13.75-0.12-15.18,20.48-15.18,20.48s-0.97,13.11-1.48,21.11c-0.71-0.11-1.34,0.06-1.34,0.06
				c1.88-29.1-4.59-39.44-15.68-41c-7.27-1.02-16.59-0.88-21.69,5.4c-4.24,5.21-5.4,15.29,1.32,19.08c0.85,0.48,1.82,0.9,2.79,1.06
				c-2.51,22.62-3.01,34.05-2.78,42.39c0.24,8.51-0.7,31.66,16.68,32.67c15.33,0.89,17.36-12.88,18.09-31.73
				c0.61,0,0.79,0.09,1.79-0.18c-1.23,22.78,2.2,32.08,18.57,31.57c21.13-0.66,17.49-43.34,18.03-68.11
				C304.04,8.34,298.15,0.42,284.4,0.31z"/>
			<path class="st1" d="M248.43,101.89c-0.46,0-0.93-0.01-1.41-0.04c-16.42-0.96-16.76-21.21-16.92-30.95
				c-0.01-0.74-0.02-1.41-0.04-2.02c-0.28-9.66,0.55-22.27,2.75-42.15c-0.82-0.17-1.7-0.52-2.61-1.04c-2.49-1.4-4.11-3.76-4.69-6.8
				c-0.8-4.21,0.52-9.32,3.29-12.72c4.16-5.12,11.55-6.97,21.97-5.51c7.89,1.11,18.1,6.56,15.96,40.93c0.2-0.03,0.46-0.05,0.74-0.03
				c0.51-7.94,1.45-20.68,1.46-20.81c0.01-0.21,1.6-20.75,15.36-20.75c0.04,0,0.08,0,0.12,0c5.93,0.05,10.09,1.52,13.11,4.63
				c4.68,4.82,6.62,13.6,6.3,28.47c-0.08,3.55-0.07,7.46-0.06,11.59c0.06,25.05,0.13,56.23-18.26,56.81
				c-6.54,0.2-10.98-1.13-13.97-4.19c-4.27-4.37-5.71-12.29-4.93-27.29c-0.55,0.12-0.82,0.11-1.14,0.1c-0.01,0-0.03,0-0.04,0
				c-0.47,11.96-1.41,23.1-7.28,28.43C255.66,100.8,252.48,101.89,248.43,101.89z M244.3,0.78c-6.87,0-11.92,1.93-15.04,5.77
				c-2.66,3.27-3.93,8.19-3.16,12.23c0.54,2.87,2.06,5.08,4.4,6.39c0.96,0.54,1.87,0.89,2.7,1.02c0.16,0.03,0.27,0.17,0.25,0.33
				c-2.22,20.01-3.05,32.67-2.78,42.35c0.02,0.61,0.03,1.28,0.04,2.02c0.16,9.55,0.49,29.44,16.35,30.36
				c4.56,0.26,8.06-0.76,10.68-3.14c5.2-4.72,6.54-13.95,7.09-28.3c0.01-0.16,0.14-0.29,0.3-0.29c0.13,0,0.25,0,0.35,0.01
				c0.37,0.02,0.61,0.02,1.36-0.18c0.09-0.03,0.19,0,0.27,0.06c0.07,0.06,0.12,0.15,0.11,0.25c-0.81,15.07,0.56,22.97,4.74,27.24
				c2.87,2.94,7.18,4.22,13.52,4.01c17.81-0.56,17.74-31.41,17.68-56.21c-0.01-4.14-0.02-8.05,0.06-11.61
				c0.31-14.5-1.63-23.41-6.13-28.04c-2.9-2.99-6.93-4.4-12.68-4.45c-0.04,0-0.08,0-0.11,0c-13.21,0-14.75,20-14.77,20.2
				c-0.01,0.13-0.97,13.2-1.48,21.11c-0.01,0.08-0.05,0.16-0.11,0.21c-0.07,0.05-0.15,0.07-0.23,0.06c-0.63-0.1-1.21,0.05-1.22,0.06
				c-0.09,0.03-0.19,0-0.27-0.06c-0.07-0.06-0.12-0.15-0.11-0.25c2.21-34.21-7.74-39.6-15.42-40.68
				C248.4,0.94,246.27,0.78,244.3,0.78z"/>
		</g>
		<g>
			<path class="st0" d="M266.39,41.96c0,0-0.68,0.17-0.95,0.31"/>
			<path class="st1" d="M265.45,42.56c-0.11,0-0.21-0.06-0.27-0.16c-0.07-0.15-0.02-0.33,0.13-0.4c0.28-0.14,0.93-0.31,1.01-0.33
				c0.16-0.04,0.32,0.06,0.36,0.22c0.04,0.16-0.06,0.32-0.22,0.36c-0.18,0.05-0.69,0.19-0.88,0.28
				C265.54,42.55,265.49,42.56,265.45,42.56z"/>
		</g>
		<g>
			<path class="st0" d="M267.74,41.9c0,0,0.93,0.08,1.38,0.22"/>
			<path class="st1" d="M269.11,42.41c-0.03,0-0.06,0-0.08-0.01c-0.41-0.12-1.31-0.2-1.32-0.2c-0.16-0.02-0.29-0.16-0.27-0.32
				c0.01-0.16,0.17-0.28,0.32-0.27c0.04,0,0.97,0.09,1.43,0.23c0.16,0.05,0.25,0.21,0.2,0.37
				C269.36,42.33,269.24,42.41,269.11,42.41z"/>
		</g>
		<g>
			<path class="st0" d="M266.91,69.64c0,0,0.8-0.24,1.23-0.54"/>
			<path class="st1" d="M266.91,69.94c-0.13,0-0.25-0.08-0.29-0.21c-0.05-0.16,0.04-0.32,0.2-0.37c0.01,0,0.76-0.23,1.15-0.5
				c0.13-0.09,0.32-0.06,0.42,0.08c0.09,0.14,0.06,0.32-0.08,0.42c-0.46,0.32-1.28,0.57-1.32,0.58
				C266.97,69.94,266.94,69.94,266.91,69.94z"/>
		</g>
		<g>
			<path class="st0" d="M265.12,69.83c0,0-1.01-0.1-1.47-0.24"/>
			<path class="st1" d="M265.12,70.13c-0.01,0-0.02,0-0.03,0c-0.04,0-1.05-0.1-1.54-0.26c-0.16-0.05-0.24-0.22-0.19-0.38
				c0.05-0.16,0.22-0.24,0.38-0.19c0.35,0.11,1.14,0.21,1.41,0.23c0.16,0.02,0.28,0.16,0.27,0.33
				C265.41,70.01,265.28,70.13,265.12,70.13z"/>
		</g>
		<g>
			<line class="st0" x1="233.19" y1="26.35" x2="233.59" y2="23.2"/>
			<path class="st1" d="M233.19,26.65c-0.01,0-0.03,0-0.04,0c-0.16-0.02-0.28-0.17-0.26-0.33l0.4-3.14
				c0.02-0.16,0.17-0.28,0.33-0.26c0.16,0.02,0.28,0.17,0.26,0.33l-0.4,3.14C233.47,26.54,233.34,26.65,233.19,26.65z"/>
		</g>
	</g>
</g>
</svg>
