<svg id="Layer_1" data-name="Layer 1" xmlns="http://www.w3.org/2000/svg" viewBox="0 0 44.01 44.08"><defs><style>.cls-1{fill:#0056ff;}</style></defs><path class="cls-1" d="M137.27,46.77l-.71-2.44c-2.84-9.63-9.2-16-18.89-18.89l-2.4-.71,2.4-.72c9.69-2.9,16-9.26,18.89-18.89l.71-2.44L138,5.12c2.84,9.63,9.2,16,18.89,18.89l2.4.72-2.4.71c-9.69,2.9-16,9.26-18.89,18.89Zm-17-22a27.48,27.48,0,0,1,17,17,27.52,27.52,0,0,1,17-17,27.56,27.56,0,0,1-17-17A27.52,27.52,0,0,1,120.26,24.73Z" transform="translate(-115.27 -2.68)"/></svg>