<?xml version="1.0" encoding="utf-8"?>
<!-- Generator: Adobe Illustrator 23.1.0, SVG Export Plug-In . SVG Version: 6.00 Build 0)  -->
<svg version="1.1" id="Layer_1" xmlns="http://www.w3.org/2000/svg" xmlns:xlink="http://www.w3.org/1999/xlink" x="0px" y="0px"
	 viewBox="0 0 183.6 49.5" style="enable-background:new 0 0 183.6 49.5;" xml:space="preserve">
<style type="text/css">
	.st0{fill:#0056FF;}
</style>
<g>
	<path class="st0" d="M7.4,49.3L0,41.2l0.2-0.5c6.3-14.2,14.9-25.2,18.4-29.3l0,0c0.4-0.5,1-0.8,1.7-0.8s1.3,0.2,1.7,0.7l5,5
		l-0.4,0.5C19.6,25.1,8,48.1,7.9,48.3L7.4,49.3z M1.8,40.9L7,46.6c2.3-4.4,11.6-22.4,18-30.3l-4.1-4.1c-0.2-0.2-0.4-0.3-0.6-0.2
		c-0.2,0-0.4,0.1-0.6,0.3l0,0C16.4,16.4,8,27.1,1.8,40.9z"/>
	<path class="st0" d="M20.8,37.5l-0.3-0.2c-2.9-1.7-3.6-5.6-3.8-7.2c-0.1-0.8,0.4-1.5,1.1-1.8c9-3.2,15.7-9.5,17.8-11.6
		c-14.3-7.1-23.4-5.4-23.5-5.4l-1.2,0.2l2.9-9.7l0.6,0c23.6,2,26.9,5.4,27.2,5.8l0.1,0.2l4.5,11.8L46,20c-5.8,9.8-24.1,17-24.9,17.3
		L20.8,37.5z M15.1,9.6c4.1,0,11.9,0.9,22.1,6.3l0.8,0.4L37.4,17c-0.3,0.4-7.9,8.7-19.1,12.7c-0.1,0-0.1,0.1-0.1,0.2
		c0.1,1.3,0.7,4.4,2.7,5.9c2.6-1,18.3-7.8,23.6-16.3l-4.2-11c-0.6-0.5-4.8-3.4-25.5-5.2L13,9.7C13.5,9.6,14.2,9.6,15.1,9.6z"/>
	<path class="st0" d="M45.7,49.1l-8-5.9l0.2-0.5C46.2,19.8,58.9,1,59,0.8l0.5-0.7l7.1,5.6L57,22.7c5.3-3.9,11.3-7.2,11.4-7.3
		l0.4-0.2l8.1,6.1l-0.1,0.4c-0.7,5.4-4.3,11.6-6.3,14.7l10.1-3.9c4.9-17.3,21.3-20.3,21.5-20.3l0.3-0.1l10.4,8.7l0,0.3
		c0.4,4.3-1.4,8.5-2.5,10.6l5.8-0.7c4.8-11.4,14.9-24.8,15-24.9l0.5-0.7l6.6,6.4l-3.9,5.4l8.1-1l1.9,8.9l-0.7,0.2
		c-3.7,0.8-12.1,1.3-14.1,1.4L124,38.4c10.1-1.1,17.2-5.1,18.5-5.9c5.5-18.6,22.5-21,22.7-21l0.4-0.1l9.6,9.2l0,0.4
		c-0.3,4.6-2.2,8.7-3.3,10.7l9.6-1.1l1.9,8l-14,4.7l-2.6-3c-4.4,5.9-15.3,8.3-15.8,8.4l-0.4,0.1l-8.4-6.8c-9,4.8-20.5,6.7-21,6.8
		l-0.4,0.1l-7.2-7l-6,2.4l-3.2-3.3c-6.8,7.5-16.2,7.9-16.6,8l-0.3,0l-7.6-7.4l-15.6,7.4l-9.3-6.6l0.9-0.6c5.2-3.7,7.8-11.3,8.7-14.4
		c-6,2.4-12.4,7.1-13.5,8L45.7,49.1z M80.3,39.5l7.8,7.7c1.7-0.2,10-1.2,15.8-8l0.5-0.6l3.6,3.8L114,40l7.4,7.2
		c2.1-0.4,12.6-2.4,20.6-6.8l0.4-0.2l8.6,7c2-0.5,11.8-3.1,15-8.5l0.5-0.9l3.3,3.8l11.7-4l-1.3-5.4l-11.4,1.3l0.9-1.3
		c0,0,3.3-5.1,3.8-11l-8.6-8.2c-2.4,0.4-16.5,3.7-21.2,20.2l-0.1,0.3l-0.2,0.2c-0.3,0.2-8.4,5.5-20.7,6.5l-1.3,0.1l6.9-14.8l0.5,0
		c0.1,0,9.2-0.4,13.6-1.2l-1.3-6.1L131,19.3l5.2-7.2l-4.5-4.3c-2.1,2.9-10.4,14.5-14.4,24.3l-0.2,0.4l-9.8,1.3l0.9-1.4
		c0,0,3.5-5.4,3.1-10.7l-9.4-7.9c-2.3,0.5-15.8,4.2-20,19.6l-0.1,0.4l-15.4,6l1.5-2.1c0.1-0.1,6.2-8.7,7.3-15.6l-6.6-5
		c-1.8,1-8.8,5.1-13.7,9.2l-3.1,2.6L64.6,6.2l-4.8-3.8c-2.3,3.5-13,20.3-20.2,40.4l5.5,4l4.9-12.5l0.2-0.1c0.3-0.3,8.3-6.4,15.5-8.8
		l1.2-0.4l-0.3,1.3c-0.1,0.5-2.3,10.7-8.8,16l6.9,4.9L80.3,39.5z"/>
	<path class="st0" d="M87.2,40.3l0.2-1c2.4-16.1,16.3-19.7,16.4-19.7l1.1-0.3l-0.2,1.1c-2.7,17.5-16.3,19.7-16.5,19.8L87.2,40.3z
		 M102.9,21.4c-3.1,1.1-11.7,5.3-13.9,17.1C92,37.6,100.5,34.2,102.9,21.4z"/>
	<path class="st0" d="M149.4,40.3l0.1-1c2.4-16.1,16.3-19.7,16.4-19.7l1.1-0.3l-0.2,1.1c-2.7,17.5-16.3,19.7-16.4,19.8L149.4,40.3z
		 M165.2,21.4c-3.1,1.1-11.7,5.3-13.9,17.1C154.3,37.6,162.8,34.2,165.2,21.4z"/>
</g>
</svg>
