<?xml version="1.0" encoding="utf-8"?>
<!-- Generator: Adobe Illustrator 23.1.0, SVG Export Plug-In . SVG Version: 6.00 Build 0)  -->
<svg version="1.1" id="Layer_1" xmlns="http://www.w3.org/2000/svg" xmlns:xlink="http://www.w3.org/1999/xlink" x="0px" y="0px"
	 viewBox="0 0 183.6 49.5" style="enable-background:new 0 0 183.6 49.5;" xml:space="preserve">
<style type="text/css">
	.st0{fill:#0056FF;}
</style>
<g>
	<path class="st0" d="M146.4,39.7l0.1-1C149,22.6,162.8,19,163,19l1.1-0.3l-0.2,1.1c-2.7,17.5-16.3,19.7-16.5,19.7L146.4,39.7z
		 M162.2,20.8c-3.1,1.1-11.7,5.3-13.9,17.1C151.3,37,159.8,33.6,162.2,20.8z"/>
	<path class="st0" d="M20.8,39c-0.5,0-1-0.1-1.4-0.4c-2.5-1.6-4.8-4.8-4.9-4.9l-0.2-0.2l0-0.3c0.8-6,6.3-15.7,9-20.2l-6.2,3.4
		l-3.6-8.7l15.7-7.6L37,9.5L36.5,10c-5,5-11.3,22.1-13.1,27.2c-0.3,0.8-0.9,1.4-1.7,1.7C21.4,39,21.1,39,20.8,39z M15.9,33.1
		c0.6,0.8,2.4,3.1,4.3,4.3c0.3,0.2,0.7,0.2,1,0.1c0.4-0.1,0.6-0.4,0.8-0.8c2.3-6.5,8-21.7,13-27.3L28.9,2L15.5,8.4l2.4,5.8l9.8-5.4
		l-1.6,2.5C26,11.5,17.1,25.5,15.9,33.1z"/>
	<path class="st0" d="M23.9,49.4l-8.3-7.2l0.8-0.5C16.7,41.5,37.9,27,47.8,4l0.5-1.1l7.7,8.3l-0.2,0.5c-0.1,0.2-10.9,22.8-31.4,37.3
		L23.9,49.4z M18.1,42.3l6,5.2c18.3-13.2,28.6-32.8,30.2-36l-5.5-5.9C39.6,25.9,22,39.5,18.1,42.3z"/>
	<path class="st0" d="M93,48.1l-4.6-5.3C82.9,47,77.4,47.9,77.2,48L76.8,48l-7.7-6.9l-15.4,7L46,40.9l0.2-0.5
		c3.7-10.5,14.8-26.9,15.2-27.6l0.3-0.5l0.6,0.2c3.7,1.4,6,4.2,6.9,5.4c0.2,0.3,0.2,0.8,0,1.1C65.7,23.6,61,32.7,59,36.7l11.4-5.4
		C74.6,13,92.7,11.7,92.9,11.7l0.4,0l3.2,4.9c2.6-5.5,9.1-15.9,9.4-16.4l0.5-0.8l6.9,6.8l-0.4,0.5c-9.6,12.8-14.1,25-15.5,29.2
		l9.9-4.3c4.4-14.6,19.2-19.8,19.4-19.8l0.4-0.1l10.9,9.4l0,0.4c-0.3,3.4-1.7,6.3-4.2,8.4c-5.4,4.5-14.4,4.4-17,4.3l-0.4,4.1
		c14.3-0.2,21.8-5.1,23-6c3.9-17,21.8-21.2,22-21.3l0.4-0.1l10.3,8.9l0,0.3c0.3,4.6-2.1,9.1-3.4,11.2l10.3-0.4l1.3,6.9l-13.9,5.4
		l-2.7-3.2c-5.1,5.8-15.4,7.9-15.8,8l-0.4,0.1l-8.5-7.2c-9,5.8-24.4,7.1-25.1,7.2l-0.4,0l-6.6-6.9c-3.5,2.6-13.1,6.6-13.5,6.8
		L93,48.1z M107.1,39.1l7.1,7.4c2.4-0.2,16.6-1.8,24.5-7.2l0.5-0.3l8.9,7.5c1.9-0.4,11.1-2.8,15.2-8.1l0.6-0.7l3.2,3.7l11.7-4.6
		l-0.8-4.4l-12,0.4l0.9-1.3c0-0.1,4.2-5.7,4-11.2l-9.2-8c-2.5,0.7-17.3,5.3-20.6,20.3l-0.1,0.3l-0.2,0.2c-0.3,0.3-8.2,6.5-25,6.5
		h-0.8l0.7-7.2l0.8,0.1c0.1,0,10.8,1,16.6-3.9c2.1-1.8,3.3-4.1,3.6-6.9l-9.7-8.3c-2.3,0.9-14.4,6.2-18.1,19l-0.1,0.3l-13.5,5.9
		l0.4-1.5c0-0.1,4.2-14.9,15.8-30.7l-4.7-4.6c-1.8,2.8-7.7,12.6-9.3,16.6l-0.5,1.3l-4.2-6.5c-2.8,0.3-17.3,2.6-20.8,18.8l-0.1,0.4
		l-16,7.5l0.9-1.9c0.3-0.6,6.5-13.3,11.1-19.5c-0.9-1.1-2.7-3.2-5.4-4.3c-1.9,2.8-11.2,17-14.6,26.3l6.3,5.9l15.4-7l7.9,7.1
		c1.3-0.3,6.1-1.5,10.6-5.2l0.6-0.5l4.9,5.5c2.2-0.9,10.7-4.7,13.2-6.8L107.1,39.1z"/>
	<path class="st0" d="M71.1,13c-3.5,0-6.3-2.8-6.3-6.3s2.8-6.3,6.3-6.3s6.3,2.8,6.3,6.3S74.6,13,71.1,13z M71.1,1.8
		c-2.7,0-4.8,2.2-4.8,4.8s2.2,4.8,4.8,4.8S76,9.3,76,6.6S73.8,1.8,71.1,1.8z"/>
	<path class="st0" d="M77.7,38.9l0-1c0.6-15.5,14.9-18,15.1-18.1l0.9-0.1l0,0.9c0.1,14.8-14.9,18-15,18.1L77.7,38.9z M92.1,21.5
		c-2.9,0.7-11.9,4-12.9,15.4C82.4,36,91.7,32.4,92.1,21.5z"/>
	<path class="st0" d="M119.2,28.1c-0.3,0-0.5,0-0.8,0l-1.7-0.1l1.2-1.2c0.1-0.1,5.1-5.1,10.3-8.8l1.1-0.8l0.1,1.4
		c0,0.2,0.2,4-2.5,6.8C125.1,27.2,122.5,28.1,119.2,28.1z M127.8,20.2c-3,2.3-5.8,4.9-7.4,6.4c2.3-0.2,4.2-0.9,5.4-2.2
		C127.1,23,127.6,21.4,127.8,20.2z"/>
</g>
</svg>
