<?xml version="1.0" encoding="utf-8"?>
<!-- Generator: Adobe Illustrator 23.1.0, SVG Export Plug-In . SVG Version: 6.00 Build 0)  -->
<svg version="1.1" id="Layer_1" xmlns="http://www.w3.org/2000/svg" xmlns:xlink="http://www.w3.org/1999/xlink" x="0px" y="0px"
	 viewBox="0 0 183.6 49.5" style="enable-background:new 0 0 183.6 49.5;" xml:space="preserve">
<style type="text/css">
	.st0{fill:#F5D44C;}
</style>
<path class="st0" d="M21.6,11.9c-0.7-0.6-1.7-0.6-2.3,0.1C16.2,15.6,7.3,26.9,1,41.1L7.3,48c0,0,11.7-23.1,18.8-31.6L21.6,11.9z"/>
<path class="st0" d="M45.5,19.8L41.1,8.3c0,0-2.8-3.6-26.7-5.5l-2.4,7.9c0,0,9.7-2,24.9,5.9c0,0-7.6,8.6-18.8,12.5
	c-0.4,0.1-0.7,0.6-0.6,1c0.2,1.6,0.8,5.1,3.4,6.7C21,36.8,39.8,29.5,45.5,19.8z"/>
<path class="st0" d="M181,31.4l-10.5,1.2c0,0,3.6-5.3,4-11.7l-9.1-8.7c0,0-16.8,2.2-22.1,20.8c0,0-8.1,5.3-20.4,6.3l6.1-13.2
	c0,0,10.3-0.4,14.4-1.4l-1.6-7.5l-9.1,1.2l4.6-6.3l-5.5-5.3c0,0-10.3,13.6-15,25.1l-7.7,1c0,0,3.8-5.7,3.2-11.5l-9.9-8.3
	c0,0-16.2,2.8-21,20.2l-12.7,4.9c0,0,6.5-9.1,7.5-16.4l-7.3-5.5c0,0-8.5,4.8-14.2,9.5L65.7,6.1l-5.9-4.8c0,0-12.7,18.6-21,41.7
	l6.7,5l5.1-13.3c0,0,8.1-6.3,15.2-8.7c0,0-2.4,11.3-9.3,16.2l8.1,5.7l15.6-7.5l7.7,7.5c0,0,9.9-0.4,16.6-8.3l3.4,3.6l5.9-2.4
	l7.3,7.1c0,0,12.1-2,21.2-6.9l8.5,6.9c0,0,12.1-2.6,15.8-8.9l3,3.4l12.9-4.4L181,31.4z M88.1,39.5C90.5,23.7,104,20.4,104,20.4
	C101.3,37.6,88.1,39.5,88.1,39.5z M150.4,39.5c2.4-15.8,15.8-19.1,15.8-19.1C163.6,37.6,150.4,39.5,150.4,39.5z"/>
</svg>
