<?xml version="1.0" encoding="utf-8"?>
<!-- Generator: Adobe Illustrator 23.1.0, SVG Export Plug-In . SVG Version: 6.00 Build 0)  -->
<svg version="1.1" id="Layer_1" xmlns="http://www.w3.org/2000/svg" xmlns:xlink="http://www.w3.org/1999/xlink" x="0px" y="0px"
	 viewBox="0 0 183.6 49.5" style="enable-background:new 0 0 183.6 49.5;" xml:space="preserve">
<style type="text/css">
	.st0{fill:#F5D44C;}
</style>
<path class="st0" d="M15.9,33.5c0,0,4,5.5,7,5.5c0.2-0.6,7.9-23.3,13.9-29.3l-6.9-8.4l-14.5,7l3,7.2l7.9-4.4
	C26.2,11.2,16.9,25.7,15.9,33.5z"/>
<path class="st0" d="M49.3,4.5c-10.2,23.5-31.7,38-31.7,38l7.1,6.2c20.6-14.6,31.1-37,31.1-37L49.3,4.5z"/>
<path class="st0" d="M179.1,31.8l-11.1,0.4c0,0,4.5-6.1,4.1-12l-9.8-8.4c0,0-17.8,4-21.5,21c0,0-7.8,6.3-24.5,6.3l0.5-5.7
	c0,0,20,2,21.1-11.9l-10.3-8.8c0,0-14.8,5-19,19.7L97,37.4c0,0,4.1-14.9,16.1-31l-5.8-5.7c0,0-7.9,12.7-9.9,17.5l-3.7-5.7
	c0,0-17.9,1-21.9,19.4l-13.7,6.5c0,0,6.7-13.9,11.3-19.8c0,0-2.4-3.7-6.6-5.3c0,0-11.5,16.9-15.2,27.4l7,6.6l15.4-7l7.8,7
	c0,0,5.8-0.9,11.3-5.4l4.8,5.4c0,0,11-4.6,13.8-7.1l6.9,7.1c0,0,16.3-1.3,25.2-7.4l8.7,7.4c0,0,11.2-2.2,16-8.4l2.9,3.4l12.8-5
	L179.1,31.8z M129.4,18.8c0,0,0.6,9.2-10.2,8.8C119.2,27.6,124.3,22.6,129.4,18.8z M79.2,38.2c0.6-15.1,14.4-17.3,14.4-17.3
	C93.7,35.2,79.2,38.2,79.2,38.2z M148.1,39c2.4-15.8,15.8-19.1,15.8-19.1C161.3,37.1,148.1,39,148.1,39z"/>
<circle class="st0" cx="71.9" cy="6.9" r="5.6"/>
</svg>
